<?xml version="1.0" encoding="UTF-8" standalone="no"?>
<!-- Created with Inkscape (http://www.inkscape.org/) -->

<svg
   width="210mm"
   height="297mm"
   viewBox="0 0 210 297"
   version="1.1"
   id="svg5"
   inkscape:version="1.2.2 (732a01da63, 2022-12-09)"
   sodipodi:docname="drawing.svg"
   xmlns:inkscape="http://www.inkscape.org/namespaces/inkscape"
   xmlns:sodipodi="http://sodipodi.sourceforge.net/DTD/sodipodi-0.dtd"
   xmlns="http://www.w3.org/2000/svg"
   xmlns:svg="http://www.w3.org/2000/svg">
  <sodipodi:namedview
     id="namedview7"
     pagecolor="#ffffff"
     bordercolor="#000000"
     borderopacity="0.25"
     inkscape:showpageshadow="2"
     inkscape:pageopacity="0.0"
     inkscape:pagecheckerboard="0"
     inkscape:deskcolor="#d1d1d1"
     inkscape:document-units="mm"
     showgrid="false"
     inkscape:zoom="0.92114198"
     inkscape:cx="369.10705"
     inkscape:cy="461.38381"
     inkscape:window-width="1366"
     inkscape:window-height="697"
     inkscape:window-x="-8"
     inkscape:window-y="-8"
     inkscape:window-maximized="1"
     inkscape:current-layer="layer1" />
  <defs
     id="defs2">
    <linearGradient
       id="linearGradient878"
       inkscape:swatch="solid">
      <stop
         style="stop-color:#000000;stop-opacity:1;"
         offset="0"
         id="stop876" />
    </linearGradient>
  </defs>
  <g
     inkscape:label="Layer 1"
     inkscape:groupmode="layer"
     id="layer1">
    <rect
       style="fill:#000000;stroke-width:1;stroke-linecap:round;-inkscape-stroke:none;stop-color:#000000"
       id="rect456"
       width="135.57446"
       height="137.87233"
       x="-87.606384"
       y="40.499996"
       ry="0" />
    <g
       id="g1405"
       inkscape:export-filename="g1405.png"
       inkscape:export-xdpi="96"
       inkscape:export-ydpi="96"
       style="stroke:#000000;stroke-opacity:1;opacity:1;stroke-width:0.05;stroke-dasharray:none">
      <g
         aria-label="ampang"
         id="text244"
         style="font-size:14px;font-family:Arial;-inkscape-font-specification:Arial;stroke-linecap:round;stop-color:#000000;stroke:#000000;stroke-opacity:1;stroke-width:0.05;stroke-dasharray:none">
        <path
           d="m 66.206387,90.029549 -1.743164,-0.314453 q 0.293945,-1.052735 1.011718,-1.558594 0.717774,-0.50586 2.132813,-0.50586 1.285156,0 1.914062,0.307618 0.628907,0.300781 0.881836,0.772461 0.259766,0.464843 0.259766,1.71582 l -0.02051,2.242187 q 0,0.957032 0.08887,1.415039 0.0957,0.451172 0.348633,0.970704 h -1.900391 q -0.0752,-0.191407 -0.18457,-0.567383 -0.04785,-0.170899 -0.06836,-0.225586 -0.492188,0.478515 -1.052735,0.717773 -0.560547,0.239258 -1.196289,0.239258 -1.121093,0 -1.770508,-0.608398 -0.642578,-0.608399 -0.642578,-1.538086 0,-0.615235 0.293946,-1.09375 0.293945,-0.485352 0.820312,-0.738282 0.533203,-0.259765 1.53125,-0.451171 1.34668,-0.25293 1.866211,-0.47168 V 90.14576 q 0,-0.553711 -0.273437,-0.786133 -0.273438,-0.239258 -1.032227,-0.239258 -0.512695,0 -0.799805,0.205078 -0.287109,0.198242 -0.464843,0.704102 z m 2.570312,1.558593 q -0.369141,0.123047 -1.168945,0.293946 -0.799805,0.170898 -1.045899,0.334961 -0.375976,0.266601 -0.375976,0.676757 0,0.403321 0.300781,0.697266 0.300781,0.293945 0.765625,0.293945 0.519531,0 0.991211,-0.341796 0.348633,-0.259766 0.458008,-0.635743 0.07519,-0.246093 0.07519,-0.936523 z"
           style="font-weight:bold;-inkscape-font-specification:'Arial Bold';fill:#ffffff;stroke:#000000;stroke-opacity:1;stroke-width:0.05;stroke-dasharray:none"
           id="path297" />
        <path
           d="m 72.413418,87.814705 h 1.770508 v 0.991211 q 0.950195,-1.155274 2.262695,-1.155274 0.697266,0 1.209961,0.28711 0.512695,0.287109 0.84082,0.868164 0.478516,-0.581055 1.032227,-0.868164 0.553711,-0.28711 1.182617,-0.28711 0.799805,0 1.353516,0.328125 0.553711,0.321289 0.827148,0.950196 0.198242,0.464843 0.198242,1.503906 v 4.641602 h -1.920898 v -4.149415 q 0,-1.080078 -0.198242,-1.394531 -0.266602,-0.410156 -0.820313,-0.410156 -0.40332,0 -0.758789,0.246094 -0.355469,0.246093 -0.512695,0.724609 -0.157227,0.47168 -0.157227,1.49707 v 3.486329 H 76.80209 v -3.978516 q 0,-1.05957 -0.102539,-1.367188 -0.102539,-0.307617 -0.321289,-0.458007 -0.211914,-0.150391 -0.581055,-0.150391 -0.444336,0 -0.799805,0.239258 -0.355469,0.239258 -0.512695,0.690429 -0.150391,0.451172 -0.150391,1.497071 v 3.527344 h -1.920898 z"
           style="font-weight:bold;-inkscape-font-specification:'Arial Bold';fill:#ffffff;stroke:#000000;stroke-opacity:1;stroke-width:0.05;stroke-dasharray:none"
           id="path299" />
        <path
           d="m 84.950527,87.814705 h 1.791016 v 1.066406 q 0.348633,-0.546875 0.943359,-0.888672 0.594727,-0.341797 1.319336,-0.341797 1.264649,0 2.146485,0.991211 0.881835,0.991211 0.881835,2.761719 0,1.818359 -0.888671,2.830078 -0.888672,1.004883 -2.153321,1.004883 -0.601562,0 -1.09375,-0.239258 -0.485351,-0.239258 -1.02539,-0.820312 v 3.657226 h -1.920899 z m 1.900391,3.506836 q 0,1.223633 0.485351,1.811523 0.485352,0.581055 1.182618,0.581055 0.669921,0 1.114257,-0.533203 0.444336,-0.540039 0.444336,-1.763672 0,-1.141602 -0.458007,-1.695313 -0.458008,-0.55371 -1.134766,-0.55371 -0.704102,0 -1.168945,0.546875 -0.464844,0.540039 -0.464844,1.606445 z"
           style="font-weight:bold;-inkscape-font-specification:'Arial Bold';fill:#ffffff;stroke:#000000;stroke-opacity:1;stroke-width:0.05;stroke-dasharray:none"
           id="path301" />
        <path
           d="m 94.992519,90.029549 -1.743164,-0.314453 q 0.293946,-1.052735 1.011719,-1.558594 0.717774,-0.50586 2.132813,-0.50586 1.285156,0 1.914062,0.307618 0.628906,0.300781 0.881836,0.772461 0.259766,0.464843 0.259766,1.71582 l -0.02051,2.242187 q 0,0.957032 0.08887,1.415039 0.0957,0.451172 0.348633,0.970704 h -1.900391 q -0.07519,-0.191407 -0.18457,-0.567383 -0.04785,-0.170899 -0.06836,-0.225586 -0.492188,0.478515 -1.052735,0.717773 -0.560547,0.239258 -1.196289,0.239258 -1.121094,0 -1.770508,-0.608398 -0.642578,-0.608399 -0.642578,-1.538086 0,-0.615235 0.293945,-1.09375 0.293946,-0.485352 0.820313,-0.738282 0.533203,-0.259765 1.53125,-0.451171 1.34668,-0.25293 1.866211,-0.47168 V 90.14576 q 0,-0.553711 -0.273438,-0.786133 -0.273437,-0.239258 -1.032226,-0.239258 -0.512695,0 -0.799805,0.205078 -0.287109,0.198242 -0.464844,0.704102 z m 2.570313,1.558593 q -0.369141,0.123047 -1.168945,0.293946 -0.799805,0.170898 -1.045899,0.334961 -0.375976,0.266601 -0.375976,0.676757 0,0.403321 0.300781,0.697266 0.300781,0.293945 0.765625,0.293945 0.519531,0 0.991211,-0.341796 0.348633,-0.259766 0.458008,-0.635743 0.07519,-0.246093 0.07519,-0.936523 z"
           style="font-weight:bold;-inkscape-font-specification:'Arial Bold';fill:#ffffff;stroke:#000000;stroke-opacity:1;stroke-width:0.05;stroke-dasharray:none"
           id="path303" />
        <path
           d="m 107.94662,95.074471 h -1.9209 v -3.705079 q 0,-1.175781 -0.12304,-1.517578 -0.12305,-0.348633 -0.40332,-0.540039 -0.27344,-0.191406 -0.66309,-0.191406 -0.49902,0 -0.89551,0.273437 -0.39648,0.273438 -0.54687,0.72461 -0.14356,0.451172 -0.14356,1.667969 v 3.288086 h -1.9209 v -7.259766 h 1.78418 v 1.066406 q 0.9502,-1.230469 2.39258,-1.230469 0.63574,0 1.16211,0.232422 0.52637,0.225586 0.79297,0.581055 0.27344,0.355469 0.37598,0.806641 0.10937,0.451171 0.10937,1.291992 z"
           style="font-weight:bold;-inkscape-font-specification:'Arial Bold';fill:#ffffff;stroke:#000000;stroke-opacity:1;stroke-width:0.05;stroke-dasharray:none"
           id="path305" />
        <path
           d="m 109.71713,95.552986 2.19433,0.266602 q 0.0547,0.382812 0.25293,0.526367 0.27344,0.205078 0.86133,0.205078 0.75196,0 1.12793,-0.225586 0.25293,-0.150391 0.38281,-0.485351 0.0889,-0.239258 0.0889,-0.881836 v -1.059571 q -0.86133,1.175782 -2.17383,1.175782 -1.46289,0 -2.31738,-1.237305 -0.66992,-0.977539 -0.66992,-2.433594 0,-1.825195 0.875,-2.789062 0.88184,-0.963868 2.1875,-0.963868 1.34668,0 2.22168,1.182618 v -1.018555 h 1.79785 v 6.514648 q 0,1.285157 -0.21191,1.920899 -0.21192,0.635742 -0.59473,0.998047 -0.38281,0.362304 -1.02539,0.567382 -0.63574,0.205079 -1.61328,0.205079 -1.84571,0 -2.61817,-0.635743 -0.77246,-0.628906 -0.77246,-1.599609 0,-0.0957 0.007,-0.232422 z m 1.71582,-4.258789 q 0,1.155274 0.44434,1.695313 0.45117,0.533203 1.10742,0.533203 0.7041,0 1.18945,-0.546875 0.48535,-0.553711 0.48535,-1.633789 0,-1.12793 -0.46484,-1.674805 -0.46485,-0.546875 -1.17578,-0.546875 -0.69043,0 -1.1416,0.540039 -0.44434,0.533203 -0.44434,1.633789 z"
           style="font-weight:bold;-inkscape-font-specification:'Arial Bold';fill:#ffffff;stroke:#000000;stroke-opacity:1;stroke-width:0.05;stroke-dasharray:none"
           id="path307" />
      </g>
      <g
         aria-label="G"
         id="text1118"
         style="font-weight:bold;font-size:14px;font-family:Arial;-inkscape-font-specification:'Arial Bold';fill:#0c84ff;stroke-linecap:round;stop-color:#000000;stroke:#000000;stroke-opacity:1;stroke-width:0.05;stroke-dasharray:none">
        <path
           d="m 57.957253,95.411179 v -1.688477 h 4.361328 v 3.992188 q -0.635743,0.615234 -1.845703,1.086914 -1.203125,0.464843 -2.44043,0.464843 -1.572266,0 -2.741211,-0.65625 -1.168945,-0.663086 -1.756836,-1.886718 -0.587891,-1.230469 -0.587891,-2.672852 0,-1.56543 0.65625,-2.782227 0.65625,-1.216796 1.920899,-1.86621 0.963867,-0.499024 2.399414,-0.499024 1.866211,0 2.912109,0.786133 1.052735,0.779297 1.353516,2.160156 l -2.009766,0.375977 q -0.211914,-0.738282 -0.799804,-1.16211 -0.581055,-0.430664 -1.456055,-0.430664 -1.326172,0 -2.112305,0.840821 -0.779297,0.84082 -0.779297,2.495117 0,1.784179 0.792969,2.679687 0.792969,0.888672 2.078125,0.888672 0.635742,0 1.271484,-0.246094 0.642579,-0.252929 1.100586,-0.608398 v -1.271484 z"
           id="path310"
           style="stroke:#000000;stroke-opacity:1;stroke-width:0.05;stroke-dasharray:none" />
      </g>
      <g
         aria-label="E"
         id="text1271"
         style="font-weight:bold;font-size:14px;font-family:Arial;-inkscape-font-specification:'Arial Bold';fill:#ff0c1d;stroke-linecap:round;stop-color:#000000;stroke:#000000;stroke-opacity:1;stroke-width:0.05;stroke-dasharray:none">
        <path
           d="M 119.6462,98.92485 V 88.903366 h 7.43067 v 1.695313 h -5.40723 v 2.221679 h 5.03125 v 1.688477 h -5.03125 v 2.727539 h 5.59863 v 1.688476 z"
           id="path313"
           style="stroke:#000000;stroke-opacity:1;stroke-width:0.05;stroke-dasharray:none" />
      </g>
      <g
         aria-label="RP"
         id="text1275"
         style="font-weight:bold;font-size:14px;font-family:Arial;-inkscape-font-specification:'Arial Bold';fill:#ff1c0c;stroke-linecap:round;stop-color:#000000;stroke:#000000;stroke-opacity:1;stroke-width:0.05;stroke-dasharray:none">
        <path
           d="M 129.70624,98.92485 V 88.903366 h 4.25879 q 1.60644,0 2.33105,0.273438 0.73145,0.266601 1.16895,0.957031 0.4375,0.69043 0.4375,1.579101 0,1.12793 -0.66309,1.866211 -0.66309,0.731446 -1.98242,0.922852 0.65625,0.382812 1.08008,0.84082 0.43066,0.458008 1.15527,1.626953 l 1.22363,1.955078 h -2.41992 l -1.46289,-2.180664 q -0.7793,-1.168945 -1.06641,-1.469726 -0.2871,-0.307617 -0.60839,-0.416992 -0.32129,-0.116211 -1.01856,-0.116211 h -0.41015 v 4.183593 z m 2.02344,-5.783203 h 1.49707 q 1.45605,0 1.81835,-0.123047 0.36231,-0.123046 0.56739,-0.423828 0.20508,-0.300781 0.20508,-0.751953 0,-0.505859 -0.27344,-0.813476 -0.2666,-0.314453 -0.75879,-0.396485 -0.24609,-0.03418 -1.47656,-0.03418 h -1.5791 z"
           id="path316"
           style="stroke:#000000;stroke-opacity:1;stroke-width:0.05;stroke-dasharray:none" />
        <path
           d="M 139.80975,98.92485 V 88.903366 h 3.24707 q 1.84571,0 2.40625,0.150391 0.86133,0.225586 1.44239,0.984375 0.58105,0.751953 0.58105,1.948242 0,0.922851 -0.33496,1.551758 -0.33496,0.628906 -0.85449,0.991211 -0.5127,0.355468 -1.0459,0.471679 -0.72461,0.143555 -2.09863,0.143555 h -1.31934 v 3.780273 z m 2.02344,-8.326171 v 2.84375 h 1.10742 q 1.19629,0 1.59961,-0.157227 0.40332,-0.157227 0.62891,-0.492187 0.23242,-0.334961 0.23242,-0.779297 0,-0.546875 -0.32129,-0.902344 -0.32129,-0.355469 -0.81348,-0.444336 -0.3623,-0.06836 -1.45605,-0.06836 z"
           id="path318"
           style="stroke:#000000;stroke-opacity:1;stroke-width:0.05;stroke-dasharray:none" />
      </g>
    </g>
  </g>
</svg>
